HIERARCHY
ROOT Hips
{
	OFFSET 0.000000 0.000000 0.000000
	CHANNELS 6 Xposition Yposition Zposition Yrotation Xrotation Zrotation
	JOINT Chest
	{
		OFFSET 0.000000 -0.009281 11.569106
		CHANNELS 3 Yrotation Xrotation Zrotation
		JOINT Chest2
		{
			OFFSET -0.000000 0.016865 9.269641
			CHANNELS 3 Yrotation Xrotation Zrotation
			JOINT Chest3
			{
				OFFSET -0.000000 0.000001 8.374491
				CHANNELS 3 Yrotation Xrotation Zrotation
				JOINT Chest4
				{
					OFFSET -0.000000 0.000001 8.374493
					CHANNELS 3 Yrotation Xrotation Zrotation
					JOINT Neck
					{
						OFFSET -0.000000 0.000002 12.152554
						CHANNELS 3 Yrotation Xrotation Zrotation
						JOINT Head
						{
							OFFSET -0.000000 0.040101 7.802319
							CHANNELS 3 Yrotation Xrotation Zrotation
							End Site
							{
								OFFSET -0.000000 0.020947 14.853096
							}
						}
					}
					JOINT RightCollar
					{
						OFFSET 2.894404 0.000001 6.791374
						CHANNELS 3 Yrotation Xrotation Zrotation
						JOINT RightShoulder
						{
							OFFSET 13.574684 0.000001 0.000000
							CHANNELS 3 Yrotation Xrotation Zrotation
							JOINT RightElbow
							{
								OFFSET 23.923903 0.000002 0.000000
								CHANNELS 3 Yrotation Xrotation Zrotation
								JOINT RightWrist
								{
									OFFSET 19.846718 0.012767 0.000000
									CHANNELS 3 Yrotation Xrotation Zrotation
									End Site
									{
										OFFSET 14.973145 0.000001 0.000000
									}
								}
							}
						}
					}
					JOINT LeftCollar
					{
						OFFSET -2.894404 0.000001 6.791374
						CHANNELS 3 Yrotation Xrotation Zrotation
						JOINT LeftShoulder
						{
							OFFSET -13.574684 -0.000001 0.000000
							CHANNELS 3 Yrotation Xrotation Zrotation
							JOINT LeftElbow
							{
								OFFSET -23.923903 -0.000002 0.000000
								CHANNELS 3 Yrotation Xrotation Zrotation
								JOINT LeftWrist
								{
									OFFSET -19.846718 0.012763 0.000000
									CHANNELS 3 Yrotation Xrotation Zrotation
									End Site
									{
										OFFSET -14.973145 -0.000001 0.000000
									}
								}
							}
						}
					}
				}
			}
		}
	}
	JOINT RightHip
	{
		OFFSET 9.469263 0.004643 0.045487
		CHANNELS 3 Yrotation Xrotation Zrotation
		JOINT RightKnee
		{
			OFFSET 0.000000 0.002661 -40.478676
			CHANNELS 3 Yrotation Xrotation Zrotation
			JOINT RightAnkle
			{
				OFFSET 0.000000 0.049106 -35.224068
				CHANNELS 3 Yrotation Xrotation Zrotation
				JOINT RightToe
				{
					OFFSET -0.000001 12.539529 -6.151390
					CHANNELS 3 Yrotation Xrotation Zrotation
					End Site
					{
						OFFSET -0.000001 5.044994 -1.291870
					}
				}
			}
		}
	}
	JOINT LeftHip
	{
		OFFSET -9.469263 0.004641 0.045487
		CHANNELS 3 Yrotation Xrotation Zrotation
		JOINT LeftKnee
		{
			OFFSET 0.000000 0.002661 -40.478676
			CHANNELS 3 Yrotation Xrotation Zrotation
			JOINT LeftAnkle
			{
				OFFSET 0.000000 0.049106 -35.224068
				CHANNELS 3 Yrotation Xrotation Zrotation
				JOINT LeftToe
				{
					OFFSET -0.000001 12.539529 -6.151390
					CHANNELS 3 Yrotation Xrotation Zrotation
					End Site
					{
						OFFSET -0.000001 5.044994 -1.291870
					}
				}
			}
		}
	}
}
MOTION
Frames: 6
Frame Time: 0.016667
-49.548298 47.086597 83.018707 -2.215388 3.198642 -100.804747 -5.267184 -6.629368 -0.867841 -2.383259 -2.904818 -0.581236 -2.383258 -2.904817 -0.581235 -1.789827 -2.176388 -0.447177 4.649348 -21.724800 -3.611696 7.390312 -4.100300 -5.218291 7.647152 0.638435 -1.676784 50.933704 -19.827346 -2.854234 21.745181 -37.903168 38.043402 -28.910207 38.985835 66.833927 -7.095026 2.295829 -2.863657 -38.604465 -7.401660 10.131780 -41.420617 -58.075883 -22.013616 17.484987 15.945123 -62.245269 0.768213 1.728944 -20.113990 2.384842 -1.559389 -10.304082 7.312832 1.345558 17.111316 -1.279121 -1.111145 0.117904 -15.405181 21.373863 -13.083659 -2.496505 -1.576443 12.086166 1.333880 -8.375832 9.718111 0.179263 -0.465351 -0.364506 
-49.580265 47.112095 83.021011 -1.931912 3.239202 -101.010541 -5.394752 -6.740578 -0.865242 -2.432158 -2.946697 -0.596359 -2.432158 -2.946695 -0.596360 -1.826596 -2.207693 -0.458915 4.689221 -21.662457 -3.471249 7.501636 -3.988893 -4.950649 7.601567 0.585985 -1.659754 51.000558 -19.790541 -2.751470 21.942977 -38.048686 37.992456 -28.943316 38.915747 66.825806 -7.104366 2.299034 -2.829385 -38.455939 -7.379655 10.191444 -41.522841 -58.235757 -22.158179 17.550057 15.932845 -62.409071 0.788746 1.945810 -20.144465 2.361601 -1.352973 -10.354905 7.796506 1.303430 17.378638 -1.306585 -1.183046 0.112841 -15.348731 21.677972 -13.169460 -2.509336 -1.536168 12.127388 1.264757 -8.279135 9.724392 0.148735 -0.494763 -0.364597 
-49.611809 47.129841 83.028282 -1.602160 3.280668 -101.233061 -5.521173 -6.832730 -0.866768 -2.482073 -2.980656 -0.615656 -2.482073 -2.980656 -0.615656 -1.864142 -2.233040 -0.473762 4.732031 -21.604457 -3.325438 7.620148 -3.886135 -4.672462 7.551910 0.516531 -1.629306 51.062866 -19.776983 -2.629938 22.139500 -38.202143 37.944600 -28.989980 38.855444 66.813976 -7.132883 2.320145 -2.792755 -38.303131 -7.363526 10.315474 -41.629726 -58.390290 -22.309510 17.624475 15.903006 -62.579990 0.827028 2.222649 -20.135717 2.323050 -1.174582 -10.419889 8.273942 1.247001 17.692686 -1.319988 -1.219590 0.106893 -15.278812 22.005978 -13.204895 -2.512614 -1.497440 12.106926 1.200377 -8.150978 9.795923 0.119737 -0.523100 -0.349128 
-49.687294 47.117329 83.037201 -1.173958 3.328524 -101.410209 -5.638345 -6.864604 -0.932304 -2.538002 -3.008126 -0.636372 -2.538002 -3.008127 -0.636372 -1.906200 -2.253502 -0.489682 4.783451 -21.550029 -3.176976 7.755302 -3.790575 -4.387010 7.502010 0.411100 -1.624483 51.114581 -19.802035 -2.441655 22.357801 -38.349549 37.895710 -29.059921 38.802322 66.782598 -7.132023 2.298806 -2.754239 -38.156794 -7.287973 10.445395 -41.798528 -58.557104 -22.408531 17.705556 15.896685 -62.759364 0.902228 2.638188 -20.145962 2.282868 -1.030314 -10.461107 8.679331 1.218521 17.810394 -1.302927 -1.223567 0.094019 -15.274724 22.340936 -13.314240 -2.493421 -1.472918 12.046381 1.139671 -7.996812 9.739399 0.104359 -0.505740 -0.279047 
-49.863083 47.043266 83.043053 -0.645303 3.408772 -101.496912 -5.755978 -6.832757 -1.107539 -2.599807 -3.029011 -0.660756 -2.599807 -3.029011 -0.660757 -1.952680 -2.268999 -0.508358 4.835689 -21.505158 -3.023415 7.893723 -3.713469 -4.092322 7.454030 0.352936 -1.639589 51.166689 -19.899104 -2.257433 22.601591 -38.487549 37.838220 -29.131460 38.730676 66.739602 -7.128207 2.257150 -2.733302 -37.985004 -7.161414 10.588552 -42.071681 -58.717456 -22.425019 17.766377 15.912300 -62.950097 1.020380 3.234214 -20.193398 2.260517 -0.902702 -10.455178 8.897518 1.027742 18.112425 -1.252718 -1.095870 0.067868 -15.410426 22.647944 -13.564418 -2.456190 -1.468641 11.959863 1.133488 -7.790857 9.627019 0.102058 -0.428207 -0.124897 
-50.125481 46.930687 83.043625 -0.025405 3.489585 -101.657831 -5.850711 -6.726672 -1.230797 -2.667460 -3.044812 -0.695371 -2.667458 -3.044811 -0.695373 -2.003594 -2.280629 -0.534719 4.879062 -21.464983 -2.855936 8.020320 -3.646067 -3.775049 7.411676 0.305864 -1.631162 51.211286 -20.001649 -2.078430 22.836948 -38.631495 37.778514 -29.210165 38.646914 66.689202 -7.144167 2.274777 -2.674258 -37.788916 -7.070760 10.780514 -42.416844 -58.877843 -22.387740 17.839797 15.912481 -63.140468 1.223743 4.010297 -20.053318 2.257468 -0.799572 -10.362093 8.797489 0.853366 18.048449 -1.056317 -0.920985 0.134086 -15.450081 23.077804 -13.754018 -2.436833 -1.522631 11.885378 1.138478 -7.578264 9.506377 0.059431 -0.344462 -0.019197 
